<svg xmlns="http://www.w3.org/2000/svg" width="20" height="20" fill="none"><path d="M10 7.708a2.708 2.708 0 1 0 0 5.417 2.708 2.708 0 0 0 0-5.417Z"/><path fill-rule="evenodd" d="M7.708.208c-1.15 0-2.084.933-2.084 2.084v.149a.685.685 0 0 1-.684.684A3.899 3.899 0 0 0 1.04 7.024v3.842c0 1.336 0 2.384.08 3.22.08.854.249 1.552.626 2.168a4.792 4.792 0 0 0 1.582 1.582c.616.377 1.314.545 2.167.626.837.08 1.884.08 3.22.08h2.566c1.336 0 2.384 0 3.22-.08.854-.08 1.552-.249 2.168-.626a4.792 4.792 0 0 0 1.582-1.582c.377-.616.545-1.314.626-2.167.08-.837.08-1.884.08-3.22V7.023a3.899 3.899 0 0 0-3.9-3.899.685.685 0 0 1-.684-.684v-.15c0-1.15-.932-2.083-2.083-2.083H7.708ZM6.04 10.417a3.958 3.958 0 1 1 7.917 0 3.958 3.958 0 0 1-7.917 0Zm8.958-2.5a.833.833 0 1 1 0-1.667.833.833 0 0 1 0 1.667Z" clip-rule="evenodd"/></svg>